<svg xmlns="http://www.w3.org/2000/svg" width="1em" height="1em" fill="#0e60bf" viewBox="0 0 29 24" style="height: 30px; width: 30px; margin-right: 0.5rem">
          <path fill="#0e60bf" d="M11.768 23.937c0-.318.064-.653-.018-.947-.085-.305-.247-.73-.485-.825-1.287-.513-1.582-1.534-1.571-2.757 0-.132-.017-.262-.02-.335-1.185 0-2.323.06-3.45-.019-.924-.066-1.87-.19-2.745-.476C.477 17.605-.843 14.392.564 11.54c.402-.814.987-1.535 1.412-2.34.603-1.14 1.13-2.32 1.703-3.476.068-.137.216-.236.327-.352.095.127.258.248.273.384.093.885.66 1.377 1.403 1.705 1.5.66 3.096.733 4.697.643.2-.011.468-.384.554-.639.842-2.466 1.65-4.942 2.485-7.464.087.154.268.34.3.55.542 3.464 3.186 5.386 7.256 3.926.868-.311.87-.305 1.69.22-1.45 2.327-2.903 4.654-4.367 7.001 1.38-.044 2.613-.099 3.848-.115.951-.014 1.936.174 2.846-.015.781-.163 1.538-.654 2.189-1.152.444-.338.79-.573 1.39-.271a11.201 11.201 0 0 1-1.08 4.62c-1.337 2.856-3.512 4.674-6.665 5.194-.62.102-1.27-.013-1.906.021-1.154.062-2.329.044-3.451.27-1.52.308-2.454 1.408-3.072 2.789-.146.325-.306.641-.46.962l-.17-.062.002-.001ZM3.62 7.952c-.607 1.65-1.249 3.14-1.697 4.683-.492 1.695-.22 3.266 1.32 4.399.89.655 1.91.941 3 1.003 1.526.088 2.988-.227 4.434-.674.223-.069.556-.058.723.068.113.084.06.444.014.67-.078.4-.227.785-.308 1.185-.158.778.145 1.373.837 1.768.347.198.6.209.87-.152 1.315-1.757 3.181-2.236 5.187-1.842 3.394.663 7.677-2.147 8.755-5.303.118-.342.145-.717.201-1.004-1.776 0-3.439.004-5.1 0-2.151-.007-4.205.248-5.662 2.135l-1.203-.9c1.468-2.723 3.767-4.857 5.043-7.756-2.266-.088-4.418-.21-6.335-1.368-.493 1.423-.969 2.792-1.506 4.337-1.775 0-3.642.045-5.507-.018-1.062-.036-2.16-.13-3.067-1.23v-.001Z"></path></svg>